<?xml version="1.0" ?><!DOCTYPE svg  PUBLIC '-//W3C//DTD SVG 1.1//EN'  'http://www.w3.org/Graphics/SVG/1.1/DTD/svg11.dtd'><svg width="846.66px" height="846.66px" viewBox="0 0 846.66 846.66" style="shape-rendering:geometricPrecision; text-rendering:geometricPrecision; image-rendering:optimizeQuality; fill-rule:evenodd; clip-rule:evenodd" version="1.1" xml:space="preserve" xmlns="http://www.w3.org/2000/svg" xmlns:xlink="http://www.w3.org/1999/xlink"><defs><style type="text/css">
   <![CDATA[
    .fil0 {fill:black;fill-rule:nonzero}
   ]]>
  </style></defs><g id="Layer_x0020_1"><path class="fil0" d="M443.99 402.67l190.12 0c11.41,0 20.66,9.25 20.66,20.66 0,127.82 -103.62,231.44 -231.44,231.44 -127.82,0 -231.44,-103.62 -231.44,-231.44 0,-127.82 103.62,-231.44 231.44,-231.44 11.41,0 20.66,9.25 20.66,20.66l0 190.12zm-20.66 -392.26c228.05,0 412.92,184.87 412.92,412.92 0,228.05 -184.87,412.92 -412.92,412.92 -228.05,0 -412.92,-184.87 -412.92,-412.92 0,-228.04 184.88,-412.92 412.92,-412.92zm0 41.33c-205.22,0 -371.59,166.37 -371.59,371.59 0,205.22 166.37,371.59 371.59,371.59 205.22,0 371.59,-166.37 371.59,-371.59 0,-205.22 -166.37,-371.59 -371.59,-371.59zm-186.14 332.75l165.48 16.14 0 -166.3c-81.75,8.84 -148.79,69.77 -165.48,150.16zm206.8 59.51l0 168.33c88.5,-9.56 158.77,-79.84 168.34,-168.33l-168.34 0zm-41.32 168.33l0 -170.32 -169.44 -16.52c1.07,96.15 73.96,176.52 169.44,186.84z"/></g></svg>
